<svg width="94" height="93" viewBox="0 0 94 93" fill="none" xmlns="http://www.w3.org/2000/svg">
<path d="M93.6907 65.8147C93.6907 63.0856 92.6256 60.5174 90.6915 58.5833L76.0464 43.9384C76.0298 43.9202 76.0145 43.9012 75.9969 43.8836C75.9793 43.866 75.9605 43.851 75.9423 43.8343L71.0506 38.9427C70.3421 38.2346 69.1939 38.2346 68.4853 38.9427C67.777 39.651 67.777 40.7995 68.4853 41.508L72.1463 45.1691L66.0894 51.226C65.7758 51.5396 65.588 51.957 65.5614 52.3998C65.3693 55.591 64.0056 58.6116 61.7267 60.8998C59.4331 63.1839 56.4126 64.5476 53.2213 64.7396C52.7787 64.7663 52.3612 64.9542 52.0476 65.2677L45.9906 71.3246L28.4138 53.7478L34.4682 47.6934C34.7818 47.3798 34.9696 46.9622 34.9962 46.5195C35.1885 43.322 36.553 40.3025 38.8387 38.0169C41.1243 35.7311 44.1439 34.3666 47.3414 34.1745C47.784 34.1478 48.2017 33.9599 48.5151 33.6465L54.5695 27.5921L56.8655 29.888C57.2197 30.2421 57.6839 30.4193 58.148 30.4193C58.6122 30.4193 59.0764 30.2421 59.4306 29.888C60.1389 29.1797 60.1389 28.0312 59.4306 27.3227L55.8532 23.7451C55.8528 23.7448 55.8526 23.7444 55.8523 23.744C55.8519 23.7437 55.8515 23.7435 55.8512 23.7431L51.4664 19.3582C44.7358 12.6278 38.3471 13.0186 33.6817 13.3041C30.9136 13.4737 29.302 13.5236 28.3601 12.5817L26.0384 10.2602L26.1801 10.1185C26.5202 9.77821 26.7113 9.31659 26.7113 8.83556C26.7113 8.35435 26.52 7.89291 26.1795 7.55282L20.545 1.92339C19.3049 0.683091 17.6498 0 15.8847 0C14.1197 0 12.4644 0.683091 11.2241 1.92339L2.74566 10.4018C1.50536 11.6421 0.822266 13.2972 0.822266 15.0623C0.822266 16.8273 1.50536 18.4825 2.74511 19.7222L8.37508 25.3574C8.71518 25.6979 9.17662 25.8893 9.65783 25.8894H9.65819C10.1392 25.8894 10.6007 25.6983 10.9408 25.3582L11.0824 25.2165L13.4041 27.538C14.3459 28.4798 14.296 30.0917 14.1266 32.8595C13.8411 37.5247 13.45 43.9135 20.1806 50.6443L24.5656 55.0293C24.5658 55.0295 24.5661 55.0298 24.5663 55.0302C24.5665 55.0305 24.5668 55.0307 24.5672 55.0309L44.6591 75.1228C44.675 75.14 44.6894 75.158 44.7061 75.1747C44.7227 75.1913 44.7407 75.2057 44.7579 75.2215L59.4056 89.8691C61.3397 91.8034 63.9079 92.8685 66.637 92.8685C71.7052 92.8685 75.9218 89.1593 76.7232 84.3122C81.0222 83.6007 84.4231 80.1999 85.1345 75.9009C89.9816 75.0996 93.6907 70.8829 93.6907 65.8147V65.8147ZM5.31079 17.1578C4.75575 16.6026 4.44994 15.8586 4.44994 15.0623C4.44994 14.266 4.75575 13.522 5.31079 12.9669L13.7892 4.48852C14.3442 3.93349 15.0885 3.62767 15.8847 3.62767C16.681 3.62767 17.425 3.93349 17.9808 4.48907L22.3322 8.83647L9.65892 21.5097L5.31079 17.1578ZM17.7475 33.0811C17.9353 30.0137 18.1127 27.1161 15.9693 24.9729L13.6477 22.6514L23.4736 12.8255L25.7954 15.147C27.9388 17.2904 30.8364 17.1128 33.9038 16.9253C38.3206 16.655 43.3266 16.3485 48.9016 21.9237L52.0048 25.027L46.4212 30.6105C42.6 31.003 39.0197 32.7062 36.2739 35.4516C33.5283 38.1974 31.8253 41.7776 31.4329 45.5988L25.8494 51.1823L22.7463 48.0792C17.1707 42.504 17.4771 37.4978 17.7475 33.0811ZM85.0763 72.2119C84.6861 70.2517 83.7275 68.4473 82.2822 66.9972C81.575 66.2878 80.4269 66.2859 79.7169 66.993C79.0075 67.7 79.0055 68.8485 79.7127 69.5583C80.9596 70.8093 81.6463 72.4671 81.6463 74.2266C81.6463 77.8646 78.6867 80.8242 75.0486 80.8242C73.2892 80.8242 71.6314 80.1375 70.3804 78.8907C69.6706 78.1834 68.5225 78.1853 67.8151 78.8948C67.108 79.6044 67.1098 80.7529 67.8192 81.4601C69.2694 82.9054 71.074 83.864 73.034 84.2542C72.3119 87.1161 69.718 89.2408 66.637 89.2408C64.8768 89.2408 63.2197 88.553 61.9707 87.304L48.5563 73.8894L54.1424 68.3031C57.9556 67.911 61.5352 66.2103 64.2922 63.4645C67.0329 60.7126 68.7332 57.1333 69.1254 53.3199L74.7116 47.7338L88.1262 61.1483C89.3752 62.3973 90.063 64.0542 90.063 65.8145C90.063 68.8957 87.9383 71.4897 85.0763 72.2119V72.2119Z" fill="#03FF95"/>
<path d="M54.0997 38.6082C53.3912 37.9001 52.243 37.9001 51.5344 38.6082L39.6367 50.5059C38.9284 51.2142 38.9284 52.3627 39.6367 53.0712C39.9909 53.4253 40.4551 53.6025 40.9193 53.6025C41.3834 53.6025 41.8478 53.4253 42.2018 53.0712L54.0995 41.1735C54.808 40.4652 54.808 39.3167 54.0997 38.6082V38.6082Z" fill="#03FF95"/>
<path d="M57.7023 44.7782L45.8047 56.6758C45.0964 57.3841 45.0964 58.5327 45.8047 59.2412C46.1589 59.5952 46.6231 59.7724 47.0872 59.7724C47.5516 59.7724 48.0156 59.5952 48.3698 59.2412L60.2675 47.3435C60.9758 46.6352 60.9758 45.4866 60.2675 44.7782C59.559 44.07 58.4108 44.07 57.7023 44.7782V44.7782Z" fill="#03FF95"/>
<path d="M62.5513 35.7394C62.9043 36.0922 63.365 36.2681 63.8263 36.2681C64.291 36.2681 64.7559 36.0896 65.1114 35.7343C65.8197 35.026 65.8146 33.8722 65.1063 33.1639C64.3978 32.4558 63.2497 32.4558 62.541 33.1639C61.8327 33.8722 61.8327 35.0207 62.541 35.7292L62.5513 35.7394Z" fill="#03FF95"/>
</svg>
