<svg width="117" height="117" viewBox="0 0 117 117" fill="none" xmlns="http://www.w3.org/2000/svg">
<path d="M112.415 81.3307C111.297 92.4472 100.275 94.6185 97.2285 95.007C95.8352 93.02 93.9744 91.3836 91.8144 90.2573C100.482 84.8779 100.163 72.2451 91.3282 67.264C91.3277 67.264 91.3273 67.2635 91.3268 67.2631C96.4524 64.8618 101.426 60.3062 102.221 52.4035C102.325 51.3758 101.576 50.459 100.548 50.3557C99.5213 50.2509 98.6035 51.0018 98.5002 52.029C97.6853 60.1332 91.3086 64.6622 83.2539 65.6272C82.0149 64.0913 80.3753 62.7004 78.471 61.7093C82.2627 59.3529 84.7921 55.1451 84.7921 50.3622C84.7921 36.9253 67.0338 31.9054 60.0081 43.424V32.1756L96.4664 20.6042C98.2042 20.0492 98.1949 17.583 96.4664 17.0416L60.0081 5.46546V1.87013C60.0081 0.836885 59.1713 0 58.138 0C57.1048 0 56.2679 0.836885 56.2679 1.87013V43.6489C49.4064 31.8666 31.3577 36.8019 31.3577 50.3627C31.3577 55.1493 33.8861 59.3566 37.6816 61.7177C35.8568 62.6705 34.2288 63.996 32.9048 65.6281C32.7524 65.6038 32.2521 65.5599 31.8411 65.5538C27.9022 64.8595 18.6637 62.1581 17.645 52.0294C17.5421 51.0023 16.6229 50.2523 15.5972 50.3561C14.5695 50.4595 13.8201 51.3763 13.9239 52.4039C14.7182 60.3067 19.6927 64.8623 24.8183 67.2635C24.8178 67.264 24.8174 67.264 24.8169 67.2645C20.7541 69.5554 18.005 73.9175 18.005 78.9061C18.005 83.6936 20.5343 87.9014 24.3307 90.2578C22.1669 91.3887 20.3113 93.0242 18.9138 95.0102C15.8693 94.6325 4.85324 92.4972 3.7307 81.3312C3.62784 80.304 2.70867 79.5545 1.6829 79.6579C0.655729 79.7612 -0.0941947 80.678 0.00959774 81.7057C1.13308 92.8867 10.6217 97.3657 17.0699 98.5238C15.8767 101.778 16.1442 103.25 16.1442 114.21C16.1442 115.243 16.9811 116.08 18.0143 116.08H98.1308C99.1641 116.08 100.001 115.243 100.001 114.21C100.001 103.245 100.267 101.774 99.0752 98.5238C105.523 97.3652 115.012 92.8867 116.136 81.7057C116.384 79.2478 112.662 78.8677 112.415 81.3307V81.3307ZM60.0086 9.38807L89.7204 18.8229L60.0086 28.253V9.38807ZM82.6419 69.5222C82.6456 69.5208 82.6499 69.5203 82.6536 69.5194C83.1174 69.5278 84.3358 69.3609 84.8286 69.2796C90.1126 69.3071 94.405 73.6159 94.405 78.9056C94.405 84.2121 90.085 88.5274 84.7785 88.5274C79.472 88.5274 75.1567 84.2121 75.1567 78.9056C75.1567 74.3331 78.3593 70.4947 82.6419 69.5222V69.5222ZM79.2009 66.7638C74.7312 68.8256 71.5894 73.2812 71.4305 78.4755C71.2668 73.2812 68.125 68.8256 63.6554 66.7638C67.9974 62.7612 74.7696 62.6733 79.2009 66.7638ZM71.4258 40.7409C76.7323 40.7409 81.0523 45.0562 81.0523 50.3627C81.0523 55.6692 76.7323 59.9892 71.4258 59.9892C66.1193 59.9892 61.8039 55.6692 61.8039 50.3627C61.8039 45.0562 66.1193 40.7409 71.4258 40.7409V40.7409ZM60.0086 57.3009C61.1026 59.0962 62.6081 60.611 64.3894 61.7191C62.7437 62.5747 61.2523 63.7341 60.0086 65.1508V57.3009ZM60.1442 69.5035C64.4595 70.4526 67.6995 74.3097 67.6995 78.9056C67.6995 84.2121 63.3795 88.5274 58.073 88.5274C52.7665 88.5274 48.4512 84.2121 48.4512 78.9056C48.4507 73.0787 53.7095 68.2136 60.1442 69.5035V69.5035ZM56.2684 65.298C54.9752 63.7916 53.4561 62.5966 51.7683 61.713C53.6235 60.5586 55.1748 58.9648 56.2684 57.0765V65.298ZM35.0984 50.3627C35.0984 45.0562 39.4138 40.7409 44.7203 40.7409C50.0268 40.7409 54.3468 45.0562 54.3468 50.3627C54.3468 55.6669 50.0305 59.985 44.7268 59.9887C44.7156 59.9887 44.7151 59.9887 44.7151 59.9887C39.411 59.9864 35.0984 55.6673 35.0984 50.3627V50.3627ZM52.4954 66.7638C48.0253 68.8256 44.8834 73.2812 44.7245 78.4755C44.5608 73.2858 41.4195 68.8307 36.9546 66.7642C41.3307 62.7397 48.0832 62.6957 52.4954 66.7638ZM21.7457 78.9056C21.7457 73.6159 26.0334 69.3071 31.3175 69.2796C31.8229 69.3628 33.0371 69.5278 33.4915 69.5194C33.4957 69.5208 33.4999 69.5208 33.5037 69.5222C37.7863 70.4947 40.9936 74.3331 40.9936 78.9056C40.9936 84.2121 36.6736 88.5274 31.3671 88.5274C26.0606 88.5274 21.7457 84.2121 21.7457 78.9056V78.9056ZM42.8501 112.339H19.8849V103.75C19.8849 97.4199 25.0371 92.2677 31.3675 92.2677C37.7026 92.2677 42.8501 97.4279 42.8501 103.75V112.339ZM38.4039 90.2573C42.0881 87.9711 44.58 83.9456 44.725 79.3357C44.8652 83.9456 47.3572 87.9711 51.0367 90.2573C48.3717 91.6506 46.165 93.8152 44.7203 96.4521C43.2756 93.8152 41.0688 91.6506 38.4039 90.2573V90.2573ZM69.5556 112.339H46.5904C46.5904 102.893 46.5278 102.99 46.8008 101.559C48.1842 95.5633 53.0209 92.2677 58.073 92.2677C64.6283 92.2677 69.5556 97.6916 69.5556 103.75V112.339ZM65.1094 90.2573C68.7936 87.9711 71.2855 83.9456 71.4305 79.3357C71.5707 83.9456 74.0627 87.9711 77.7422 90.2573C75.0772 91.6506 72.8705 93.8152 71.4258 96.4521C69.9811 93.8152 67.7743 91.6506 65.1094 90.2573V90.2573ZM96.2611 112.339H73.2959V103.75C73.2959 97.4484 78.4201 92.2677 84.7785 92.2677C91.1089 92.2677 96.2611 97.4199 96.2611 103.75V112.339Z" fill="#03FF95"/>
<path d="M89.8926 105.929C89.8926 106.962 90.7295 107.799 91.7627 107.799H92.2863C93.3196 107.799 94.1565 106.962 94.1565 105.929C94.1565 103.416 89.8926 103.42 89.8926 105.929Z" fill="#03FF95"/>
<path d="M84.7511 104.06H77.2705C76.2373 104.06 75.4004 104.896 75.4004 105.93C75.4004 106.963 76.2373 107.8 77.2705 107.8H84.7511C85.7843 107.8 86.6212 106.963 86.6212 105.93C86.6212 104.896 85.7843 104.06 84.7511 104.06Z" fill="#03FF95"/>
</svg>
