<svg width="90" height="98" viewBox="0 0 90 98" fill="none" xmlns="http://www.w3.org/2000/svg">
<path d="M84.9966 27.7999L70.5895 24.9557L66.0336 20.4313C68.1883 20.1331 70.2704 19.1891 71.9237 17.548C75.9616 13.5398 75.9616 7.01436 71.9237 3.00615C67.8858 -1.00205 61.3121 -1.00205 57.2742 3.00615C54.8771 5.38558 53.9262 8.65137 54.3758 11.7506C53.893 11.6807 53.4062 11.6334 52.911 11.6313H36.3368C35.0979 11.6313 33.9004 11.9933 32.8728 12.6781L19.1018 21.8112C16.2531 23.6991 15.4844 27.5387 17.3884 30.3705C19.2944 33.1983 23.1624 33.9633 26.009 32.0713L32.0068 28.0939L27.6934 32.3757C25.7376 34.317 24.6582 36.9001 24.6582 39.6476C24.6582 41.371 25.1285 43.008 25.9282 44.4846L21.6148 54.8126L6.21532 54.8105C2.78861 54.8105 0 57.5786 0 60.9801C0 64.3817 2.78861 67.1498 6.21532 67.1498H25.7666C28.2901 67.1498 30.5462 65.6567 31.5096 63.3431L37.1096 49.92H47.6508V77.4284H33.1484C32.0027 77.4284 31.0766 78.3497 31.0766 79.4849C31.0766 80.6201 32.0027 81.5415 33.1484 81.5415H49.1715L70.9292 93.8869H58.0097C56.864 93.8869 55.9379 94.8082 55.9379 95.9435C55.9379 97.0787 56.864 98 58.0097 98H78.7274C79.6659 98 80.7992 97.2781 80.7992 95.9435V65.0953C80.7992 64.3344 80.3744 63.666 79.755 63.3102L56.1616 49.9242H58.799L77.3828 57.5642C80.5506 58.866 84.1927 57.3668 85.5021 54.2223C86.8135 51.0779 85.3032 47.4625 82.1355 46.1627L62.4163 38.0579C61.656 37.7432 60.8542 37.5849 60.0359 37.5849L51.7405 37.587L58.7389 30.642L63.1311 35.0039C64.0074 35.8738 65.1076 36.46 66.3133 36.6965L82.5705 39.9047C85.931 40.5689 89.2106 38.3952 89.8798 35.0574C90.5489 31.7196 88.357 28.4641 84.9966 27.7999ZM76.6556 92.4L51.7943 78.2962V60.4105L76.6556 74.5143V92.4ZM76.6556 69.778L51.7943 55.6743V52.1843L76.6556 66.2881V69.778ZM60.2016 5.91411C62.6256 3.50795 66.5682 3.50795 68.9921 5.91411C71.4161 8.32027 71.4161 12.2339 68.9921 14.64C66.5682 17.0462 62.6256 17.0462 60.2016 14.64C57.7776 12.2339 57.7776 8.32027 60.2016 5.91411ZM27.683 61.7699C27.3598 62.539 26.6078 63.0387 25.7666 63.0387H6.21532C5.07377 63.0387 4.14355 62.1174 4.14355 60.9822C4.14355 59.847 5.07377 58.9257 6.21532 58.9257H22.9988C23.8358 58.9257 24.594 58.4239 24.9131 57.6568L28.9655 47.9478C30.1091 48.7643 31.3915 49.336 32.7444 49.6404L27.683 61.7699ZM39.2394 37.589C38.0937 37.589 37.1676 38.5103 37.1676 39.6455C37.1676 40.7808 38.0958 41.7021 39.2394 41.7021L60.0359 41.7C60.3073 41.7 60.5745 41.7535 60.8293 41.8584L80.5547 49.9673C81.6092 50.4013 82.1147 51.6064 81.6776 52.6532C81.2405 53.7 80.0264 54.1997 78.9719 53.7678L60.0089 45.9694C59.7582 45.8666 59.4889 45.8131 59.2154 45.8131L35.0793 45.8111C33.3783 45.8399 31.81 45.19 30.625 44.0116C29.4523 42.8455 28.8039 41.297 28.8039 39.6476C28.8039 37.9983 29.4523 36.4497 30.625 35.2836L42.0197 23.9726H50.8413C51.987 23.9726 52.9131 23.0513 52.9131 21.9161C52.9131 20.7809 51.987 19.8595 50.8413 19.8595H37.5944C37.1842 19.8595 36.7843 19.9809 36.4425 20.205L23.7073 28.6513C22.7564 29.2847 21.4677 29.0256 20.8338 28.0857C20.1977 27.1418 20.4546 25.8626 21.4035 25.2333L35.1766 16.0981C35.5185 15.8719 35.9287 15.7464 36.3368 15.7464H52.9048C54.5539 15.7506 56.1078 16.3943 57.2762 17.5521C59.6982 19.9583 59.6982 23.8719 57.2762 26.278L45.8815 37.587L39.2394 37.589ZM83.3785 35.8677L67.1192 32.6595C66.7194 32.5813 66.3548 32.386 66.0606 32.096L61.5006 27.5695C62.3625 26.2739 62.899 24.8343 63.1083 23.3474L68.1033 28.3058C68.3934 28.5937 68.7622 28.7891 69.1641 28.8693L84.1865 31.8348C85.3073 32.0548 86.0366 33.1407 85.8149 34.2533C85.5933 35.3638 84.4994 36.0877 83.3785 35.8677Z" fill="#03FF95"/>
</svg>
