<svg width="84" height="99" viewBox="0 0 84 99" fill="none" xmlns="http://www.w3.org/2000/svg">
<path fill-rule="evenodd" clip-rule="evenodd" d="M23.6335 15.706C23.6335 11.336 20.0778 7.78027 15.707 7.78027C11.337 7.78027 7.78125 11.336 7.78125 15.706C7.78125 20.0768 11.337 23.6318 15.707 23.6318C20.0778 23.6326 23.6335 20.0768 23.6335 15.706ZM11.6416 15.706C11.6416 13.4645 13.4654 11.6406 15.707 11.6406C17.9493 11.6406 19.7732 13.4645 19.7732 15.706C19.7732 17.9476 17.9493 19.7715 15.707 19.7715C13.4654 19.7722 11.6416 17.9476 11.6416 15.706Z" fill="#03FF95"/>
<path fill-rule="evenodd" clip-rule="evenodd" d="M68.9761 50.5713C64.0021 50.5713 59.7746 51.8108 57.2194 53.7802L50.2972 52.2391C49.2589 52.0076 48.226 52.6628 47.9938 53.7033C47.7623 54.7438 48.4175 55.7752 49.4587 56.0067L54.7644 57.1882C54.6657 57.5734 54.6129 57.97 54.6129 58.3749C54.6129 60.9972 56.7595 63.238 60.1976 64.6374L57.107 67.8169C56.3644 68.5814 56.3817 69.8036 57.1462 70.5463C57.521 70.9112 58.0065 71.0922 58.4913 71.0922C58.9942 71.0922 59.4971 70.8969 59.8756 70.5078L64.4417 65.8098C65.8561 66.0488 67.3769 66.1785 68.9761 66.1785C77.1642 66.1785 83.3392 62.8233 83.3392 58.3749C83.3392 53.9265 77.1642 50.5713 68.9761 50.5713V50.5713ZM68.9761 62.3182C62.6623 62.3182 58.4732 59.9447 58.4732 58.3749C58.4732 58.0462 58.6587 57.6828 59.0063 57.3133C59.0659 57.2613 59.1224 57.2062 59.1744 57.1459C60.6153 55.8001 64.1816 54.4316 68.9761 54.4316C75.2898 54.4316 79.4789 56.8051 79.4789 58.3749C79.4789 59.9447 75.2898 62.3182 68.9761 62.3182Z" fill="#03FF95"/>
<path fill-rule="evenodd" clip-rule="evenodd" d="M46.0245 84.7591L49.115 81.5789C49.8577 80.8144 49.8404 79.5929 49.0758 78.8495C48.3121 78.1068 47.0899 78.1242 46.3464 78.8887L41.7804 83.586C40.3659 83.347 38.8452 83.2173 37.246 83.2173C29.0578 83.2173 22.8828 86.5724 22.8828 91.0209C22.8828 95.4693 29.0578 98.8245 37.246 98.8245C45.4341 98.8245 51.6092 95.4693 51.6092 91.0209C51.6092 88.3986 49.4626 86.1578 46.0245 84.7591V84.7591ZM37.246 94.9642C30.9322 94.9642 26.7432 92.5907 26.7432 91.0209C26.7432 89.4511 30.9322 87.0776 37.246 87.0776C43.5598 87.0776 47.7488 89.4511 47.7488 91.0209C47.7488 92.5907 43.5598 94.9642 37.246 94.9642Z" fill="#03FF95"/>
<path fill-rule="evenodd" clip-rule="evenodd" d="M34.3849 52.6499C34.5267 52.6816 34.6669 52.6967 34.8064 52.6967C35.6908 52.6967 36.4885 52.0844 36.6883 51.1857C36.9198 50.1452 36.2646 49.1138 35.2241 48.8823L29.9176 47.7001C30.0172 47.3148 30.0692 46.919 30.0692 46.5133C30.0692 42.8965 26.046 40.4537 21.4377 39.3551L30.0503 22.105C30.0639 22.0771 30.0775 22.0484 30.0903 22.0198C30.9672 20.024 31.412 17.9001 31.412 15.706C31.412 7.04587 24.3669 0 15.706 0C7.04587 0 0 7.04587 0 15.706C0 17.8993 0.444844 20.0233 1.32247 22.0198C1.33453 22.0484 1.3481 22.0771 1.36243 22.105L9.98335 39.3725C5.36301 40.4974 1.34283 42.941 1.34283 46.5141C1.34283 50.9625 7.51786 54.3169 15.706 54.3169C20.68 54.3169 24.9082 53.0774 27.4635 51.1088L34.3849 52.6499ZM3.86034 15.706C3.86034 9.17434 9.17434 3.86034 15.706 3.86034C22.2377 3.86034 27.5517 9.17434 27.5517 15.706C27.5517 17.3466 27.2229 18.9338 26.5745 20.4244L15.706 42.1931L4.83824 20.4244C4.18907 18.933 3.86034 17.3459 3.86034 15.706ZM5.20317 46.5141C5.20317 45.5 7.71691 43.7372 11.7605 42.932L13.9794 47.3759C14.3059 48.0303 14.9747 48.4435 15.706 48.4435C16.4374 48.4435 17.1061 48.0303 17.4334 47.3759L19.6576 42.9199C23.7471 43.6957 26.2088 45.454 26.2088 46.5133C26.2088 46.8428 26.0219 47.2077 25.6728 47.5787C25.614 47.6307 25.5582 47.685 25.5061 47.7438C24.0653 49.0889 20.499 50.4566 15.706 50.4566C9.39224 50.4566 5.20317 48.0839 5.20317 46.5141V46.5141Z" fill="#03FF95"/>
<path fill-rule="evenodd" clip-rule="evenodd" d="M53.1118 72.7686C52.0487 72.7686 51.1816 73.6349 51.1816 74.6987C51.1816 75.7618 52.0487 76.6289 53.1118 76.6289C54.1749 76.6289 55.042 75.7618 55.042 74.6987C55.042 73.6349 54.1749 72.7686 53.1118 72.7686Z" fill="#03FF95"/>
<path fill-rule="evenodd" clip-rule="evenodd" d="M42.3423 54.374C43.4054 54.374 44.2724 53.5069 44.2724 52.4438C44.2724 51.3807 43.4054 50.5137 42.3423 50.5137C41.2792 50.5137 40.4121 51.3807 40.4121 52.4438C40.4121 53.5069 41.2792 54.374 42.3423 54.374Z" fill="#03FF95"/>
</svg>
