<svg width="103" height="103" viewBox="0 0 103 103" fill="none" xmlns="http://www.w3.org/2000/svg">
<path d="M102.886 25.1165C102.772 24.8339 102.577 24.5912 102.326 24.4185C102.075 24.2458 101.778 24.1507 101.473 24.1451L96.7772 24.0563V19.8768C96.7773 19.6727 96.7372 19.4706 96.6592 19.282C96.5811 19.0935 96.4667 18.9221 96.3224 18.7778C96.1781 18.6335 96.0067 18.519 95.8181 18.441C95.6296 18.3629 95.4274 18.3228 95.2233 18.3229H90.67V13.5992C90.6702 13.3951 90.63 13.1929 90.552 13.0044C90.4739 12.8158 90.3595 12.6444 90.2152 12.5001C90.0709 12.3558 89.8995 12.2414 89.7109 12.1633C89.5224 12.0853 89.3202 12.0452 89.1162 12.0453H84.506V7.60561C84.5061 7.40152 84.466 7.19941 84.388 7.01083C84.3099 6.82225 84.1955 6.65091 84.0512 6.50659C83.9068 6.36228 83.7355 6.24783 83.5469 6.16978C83.3583 6.09173 83.1562 6.05162 82.9521 6.05173H78.5125V1.55436C78.5128 1.24696 78.4218 0.946386 78.2511 0.690719C78.0804 0.435051 77.8377 0.23579 77.5537 0.118172C77.2697 0.000553382 76.9571 -0.0301297 76.6557 0.0300081C76.3542 0.090146 76.0774 0.238399 75.8602 0.455991C69.5346 6.89349 68.8456 7.29306 68.5792 7.87643L65.2725 15.1575L15.3273 65.0992L8.04626 68.4058C7.46289 68.6722 6.93368 69.4767 0.456223 75.8573C0.240264 76.0728 0.0925287 76.347 0.0314512 76.6459C-0.0296263 76.9447 -0.00134115 77.255 0.112778 77.5378C0.226896 77.8207 0.421795 78.0637 0.673152 78.2365C0.924508 78.4094 1.22119 78.5043 1.52618 78.5096L6.22245 78.5984V82.7805C6.22233 82.9846 6.26244 83.1867 6.34049 83.3753C6.41854 83.5639 6.53299 83.7352 6.67731 83.8796C6.82162 84.0239 6.99297 84.1383 7.18155 84.2164C7.37012 84.2944 7.57224 84.3345 7.77633 84.3344H12.3296V89.0582C12.3295 89.2623 12.3696 89.4644 12.4477 89.653C12.5257 89.8416 12.6402 90.0129 12.7845 90.1572C12.9288 90.3016 13.1002 90.416 13.2887 90.4941C13.4773 90.5721 13.6794 90.6122 13.8835 90.6121H18.4972V95.0518C18.4971 95.2558 18.5372 95.458 18.6153 95.6465C18.6933 95.8351 18.8078 96.0065 18.9521 96.1508C19.0964 96.2951 19.2677 96.4095 19.4563 96.4876C19.6449 96.5656 19.847 96.6057 20.0511 96.6056H24.4907V101.103C24.4905 101.41 24.5814 101.711 24.7521 101.967C24.9228 102.222 25.1655 102.422 25.4495 102.539C25.7336 102.657 26.0461 102.688 26.3476 102.627C26.649 102.567 26.9259 102.419 27.143 102.201C34.0742 95.2471 34.2136 95.2444 34.424 94.7809L37.7307 87.4999L87.6768 37.5538L94.9579 34.2471C95.4533 34.0242 95.3423 33.9257 102.549 26.7956C102.763 26.5795 102.91 26.3052 102.97 26.0067C103.03 25.7082 103.001 25.3987 102.886 25.1165V25.1165ZM27.5985 97.3488V95.0491C27.5986 94.845 27.5585 94.6429 27.4805 94.4543C27.4024 94.2657 27.288 94.0944 27.1436 93.9501C26.9993 93.8058 26.828 93.6913 26.6394 93.6133C26.4508 93.5352 26.2487 93.4951 26.0446 93.4952H21.605V89.0556C21.6051 88.8515 21.565 88.6494 21.4869 88.4608C21.4089 88.2722 21.2944 88.1009 21.1501 87.9565C21.0058 87.8122 20.8345 87.6978 20.6459 87.6197C20.4573 87.5417 20.2552 87.5016 20.0511 87.5017H15.441V82.7779C15.441 82.3658 15.2772 81.9705 14.9858 81.6791C14.6944 81.3877 14.2992 81.224 13.8871 81.224H9.33376V77.0694C9.3336 76.6622 9.17372 76.2713 8.88848 75.9808C8.60323 75.6902 8.21539 75.5232 7.80829 75.5155L5.24217 75.4693L8.69267 72.0162L30.811 94.1345L27.5985 97.3488ZM32.5221 91.4521L11.3769 70.3069L15.8902 68.2558L34.5732 86.9387L32.5221 91.4521ZM36.429 84.4046L18.4244 66.3964L66.5707 18.2501L84.5788 36.2583L36.429 84.4046ZM87.1094 34.3989L68.43 15.716L70.4811 11.2026L91.6255 32.3478L87.1094 34.3989ZM94.307 30.6368L72.1904 8.51841L75.4047 5.30587V7.60561C75.4046 7.80971 75.4447 8.01182 75.5228 8.2004C75.6008 8.38897 75.7153 8.56032 75.8596 8.70463C76.0039 8.84895 76.1752 8.9634 76.3638 9.04145C76.5524 9.1195 76.7545 9.15961 76.9586 9.15949H81.3983V13.5992C81.3981 13.8032 81.4383 14.0054 81.5163 14.1939C81.5944 14.3825 81.7088 14.5539 81.8531 14.6982C81.9974 14.8425 82.1688 14.9569 82.3574 15.035C82.5459 15.113 82.748 15.1531 82.9521 15.153H87.5623V19.8768C87.5622 20.0809 87.6023 20.283 87.6803 20.4716C87.7584 20.6602 87.8728 20.8315 88.0171 20.9758C88.1615 21.1202 88.3328 21.2346 88.5214 21.3127C88.71 21.3907 88.9121 21.4308 89.1162 21.4307H93.6695V25.5853C93.6696 25.9925 93.8295 26.3834 94.1148 26.6739C94.4 26.9645 94.7878 27.1315 95.1949 27.1392L97.7611 27.1854L94.307 30.6368Z" fill="#03FF95"/>
<path d="M46.0198 44.4658C45.7665 44.5668 45.5441 44.7326 45.3751 44.9467C45.2061 45.1608 45.0963 45.4156 45.0569 45.6855C45.0175 45.9554 45.0498 46.2309 45.1506 46.4844C45.2513 46.7379 45.417 46.9604 45.6309 47.1296L48.8728 49.7046L35.7856 57.8913C35.4997 58.0704 35.28 58.3375 35.1594 58.6525C35.0388 58.9675 35.0239 59.3131 35.1171 59.6373C35.2102 59.9614 35.4063 60.2464 35.6757 60.4493C35.9451 60.6522 36.2732 60.762 36.6104 60.762C37.0624 60.762 35.5138 61.1553 62.3897 52.7156C62.6648 52.6288 62.9103 52.4672 63.0987 52.2489C63.2871 52.0306 63.4111 51.7642 63.4567 51.4794C63.5023 51.1947 63.4678 50.9028 63.357 50.6366C63.2462 50.3703 63.0635 50.1402 62.8293 49.9719L58.5042 46.8641L68.0175 38.9375C68.3018 38.7008 68.4923 38.3704 68.5548 38.0057C68.6173 37.641 68.5476 37.266 68.3583 36.9482C68.1689 36.6303 67.8724 36.3904 67.522 36.2717C67.1716 36.1529 66.7903 36.1631 66.4467 36.3004L46.0198 44.4658ZM47.7451 54.0697L52.3899 51.1643C52.6005 51.0322 52.7763 50.8515 52.9026 50.6374C53.029 50.4233 53.1021 50.182 53.116 49.9338C53.1298 49.6856 53.0839 49.4376 52.9821 49.2108C52.8803 48.984 52.7257 48.7849 52.531 48.6302L49.6621 46.3553L58.49 42.8276L54.9702 45.7577C54.7879 45.9096 54.6429 46.1012 54.5462 46.3179C54.4495 46.5345 54.4036 46.7704 54.4122 47.0075C54.4208 47.2446 54.4835 47.4766 54.5956 47.6857C54.7077 47.8948 54.8662 48.0754 55.059 48.2137L58.4944 50.6822L47.7451 54.0697Z" fill="#03FF95"/>
</svg>
