<svg width="127" height="93" viewBox="0 0 127 93" fill="none" xmlns="http://www.w3.org/2000/svg">
<path d="M69.8048 9.31498C65.4282 9.31498 61.8673 12.8661 61.8673 17.2308C61.8673 21.5955 65.4282 25.1466 69.8048 25.1466C74.1815 25.1466 77.7424 21.5955 77.7424 17.2308C77.7424 12.8661 74.1815 9.31498 69.8048 9.31498ZM69.8048 21.436C67.4794 21.436 65.5881 19.5499 65.5881 17.2308C65.5881 14.9127 67.4794 13.0265 69.8048 13.0265C72.1293 13.0265 74.0216 14.9127 74.0216 17.2308C74.0216 19.5499 72.1293 21.436 69.8048 21.436ZM125.14 49.7317C124.112 49.7317 123.279 50.5627 123.279 51.587V74.2551C123.279 75.7847 122.549 77.1491 121.274 77.9994C119.998 78.8488 118.455 79.0014 117.037 78.4168L115.178 77.6506V41.6546L117.037 40.8873C118.205 40.4061 119.476 40.4255 120.618 40.9415C121.763 41.4603 122.647 42.4266 123.043 43.592C123.371 44.5621 124.428 45.0829 125.401 44.7544C126.374 44.4259 126.896 43.3726 126.567 42.4025C125.842 40.268 124.235 38.5045 122.155 37.5624C120.067 36.6173 117.745 36.5806 115.616 37.459L112.607 38.6997C112.599 38.7026 112.592 38.7055 112.585 38.7084L96.4137 45.3757C95.4593 38.0668 89.9112 31.9782 82.5231 30.4718C82.0706 30.38 81.6171 30.292 81.1646 30.2041C84.8582 26.9767 87.0819 22.2612 87.0819 17.2308C87.0819 7.72931 79.3314 0 69.8048 0C60.2783 0 52.5278 7.72931 52.5278 17.2308C52.5278 20.8495 53.646 24.2933 55.6856 27.1632C50.7498 26.9477 45.8121 26.9477 40.8764 27.1632C42.915 24.2933 44.0341 20.8495 44.0341 17.2308C44.0341 7.72931 36.2836 0 26.7561 0C17.2296 0 9.47907 7.72931 9.47907 17.2308C9.47907 22.2603 11.7037 26.9767 15.3973 30.2031C14.9439 30.292 14.4914 30.379 14.0389 30.4718C5.90371 32.1299 0 39.3432 0 47.6223V72.3795C0 77.8148 2.4669 82.8492 6.76897 86.1916C7.579 86.8216 8.7485 86.6776 9.37927 85.8688C10.011 85.061 9.86568 83.8947 9.05565 83.2647C5.66535 80.6306 3.7207 76.663 3.7207 72.3795V47.6223C3.7207 41.098 8.37352 35.4143 14.783 34.1079C16.7063 33.7156 18.6326 33.36 20.5598 33.0363C20.5743 33.0343 20.5879 33.0315 20.6024 33.0286C25.794 32.157 30.9991 31.5318 36.211 31.152C36.3582 31.1588 36.5065 31.1491 36.6528 31.1211C44.3994 30.5781 52.1596 30.5781 59.9062 31.1211C60.0535 31.1491 60.2018 31.1598 60.351 31.152C65.5619 31.5318 70.767 32.157 75.9576 33.0286C75.9721 33.0315 75.9866 33.0343 76.0012 33.0363C77.9284 33.36 79.8546 33.7156 81.778 34.1079C88.1874 35.4143 92.8403 41.098 92.8403 47.6223V48.0697V48.0862V71.219V71.2344V72.3795C92.8403 78.9038 88.1874 84.5875 81.778 85.8939C60.0089 90.3302 37.9163 90.42 16.1124 86.1587C15.1028 85.9616 14.1261 86.6177 13.9284 87.6226C13.7308 88.6285 14.3887 89.6035 15.3963 89.8006C26.3153 91.9342 37.301 93.001 48.2878 93C59.7289 93 71.171 91.8434 82.5231 89.5291C90.135 87.9782 95.7936 81.5611 96.4883 73.9584L112.584 80.5958C112.592 80.5987 112.6 80.6016 112.607 80.6055L115.616 81.8462C116.631 82.2646 117.701 82.4714 118.766 82.4714C120.372 82.4714 121.964 82.0018 123.341 81.0838C125.633 79.5561 127 77.0032 127 74.2551V51.587C127 50.5627 126.168 49.7317 125.14 49.7317ZM35.5909 27.4753C30.5815 27.8502 25.5779 28.4484 20.5879 29.2678C16.0814 26.9661 13.1998 22.3018 13.1998 17.2308C13.1998 9.77589 19.2808 3.7115 26.7561 3.7115C34.2314 3.7115 40.3125 9.77589 40.3125 17.2308C40.3125 21.1983 38.5975 24.8982 35.5909 27.4753ZM75.9731 29.2678C70.9821 28.4484 65.9785 27.8502 60.9701 27.4753C57.9635 24.8982 56.2475 21.1983 56.2475 17.2308C56.2475 9.77589 62.3295 3.7115 69.8039 3.7115C77.2802 3.7115 83.3612 9.77686 83.3612 17.2308C83.3612 22.3018 80.4786 26.9661 75.9731 29.2678ZM111.457 76.1161L96.561 69.9735V49.3317L111.457 43.189V76.1161ZM26.7561 9.31498C22.3794 9.31498 18.8186 12.8661 18.8186 17.2308C18.8186 21.5955 22.3794 25.1466 26.7561 25.1466C31.1328 25.1466 34.6936 21.5955 34.6936 17.2308C34.6936 12.8661 31.1328 9.31498 26.7561 9.31498ZM26.7561 21.436C24.4307 21.436 22.5393 19.5499 22.5393 17.2308C22.5393 14.9127 24.4307 13.0265 26.7561 13.0265C29.0806 13.0265 30.9729 14.9127 30.9729 17.2308C30.9729 19.5499 29.0806 21.436 26.7561 21.436ZM42.1224 73.8511C43.1195 73.8511 44.1184 73.6212 45.0476 73.1574L59.0109 66.1943C61.378 65.0145 62.8489 62.6403 62.8489 60.0004C62.8489 57.3605 61.378 54.9874 59.0109 53.8066L45.0476 46.8445C43.008 45.827 40.6322 45.9342 38.6924 47.1295C36.7526 48.3258 35.5938 50.3975 35.5938 52.6712V67.3297C35.5938 69.6043 36.7526 71.676 38.6924 72.8713C39.7485 73.5226 40.9326 73.8511 42.1224 73.8511ZM39.3145 52.6712C39.3145 51.6778 39.8009 50.8091 40.6487 50.2864C41.1089 50.0023 41.6137 49.8593 42.1215 49.8593C42.5478 49.8593 42.977 49.9607 43.384 50.1637L57.3463 57.1257C58.4625 57.6823 59.1291 58.7568 59.1291 60.0004C59.1291 61.245 58.4625 62.3195 57.3463 62.8761L43.384 69.8382C42.4926 70.2827 41.4965 70.2382 40.6487 69.7155C39.8018 69.1937 39.3154 68.324 39.3154 67.3297V52.6712H39.3145Z" fill="#03FF95"/>
</svg>
