<svg width="79" height="94" viewBox="0 0 79 94" fill="none" xmlns="http://www.w3.org/2000/svg">
<path d="M76.217 29.7082C77.7199 28.2015 77.7199 25.7631 76.217 24.2557L73.2887 21.3274C71.7813 19.8245 69.3429 19.8245 67.8362 21.3274L64.2524 24.93C58.7353 20.2926 52.0388 17.2778 44.9096 16.2219V11.945H46.9513C49.1097 11.9156 50.8527 10.1726 50.8821 8.015V3.87279C50.8821 1.75352 49.0706 0 46.9513 0H31.3074C29.1881 0 27.3774 1.75352 27.3774 3.87279V8.015C27.4135 10.1704 29.152 11.9089 31.3074 11.945H33.3499V16.2219C14.4691 18.9967 0 35.2953 0 54.9084C0 76.4668 17.5517 93.999 39.1102 93.999C60.6694 93.999 78.2204 76.4668 78.2204 54.9084C78.2362 47.448 76.0951 40.142 72.0552 33.8699L76.217 29.7082ZM70.5523 24.0631L73.4813 26.9921L69.8012 30.6715C68.9342 29.593 68.0289 28.5522 67.046 27.5505L70.5523 24.0631ZM31.2306 8.09176V3.85322H47.0288V8.09176H31.2306ZM37.2031 11.945H41.0564V15.8561C40.2857 15.8178 39.7461 15.8178 39.1297 15.8178C38.5134 15.8178 37.9738 15.8366 37.2031 15.8561V11.945ZM39.1297 90.1458C19.6898 90.1458 3.8916 74.3288 3.8916 54.9084C3.8916 35.488 19.6898 19.6514 39.1297 19.6514C58.5689 19.6514 74.3671 35.4692 74.3671 54.9084C74.3671 74.3476 58.5689 90.1458 39.1297 90.1458V90.1458Z" fill="#03FF95"/>
<path d="M39.1297 23.5049H38.7632C21.8482 23.6975 8.11131 37.3381 7.74481 54.2147C7.60708 54.4834 7.53484 54.7807 7.53333 55.0817C7.52957 55.3986 7.60934 55.7109 7.76437 55.9878C8.34236 72.6334 21.9445 86.0429 38.6669 86.274C38.7564 86.2898 38.8468 86.2966 38.9371 86.2928C39.0146 86.2966 39.0921 86.2898 39.1681 86.274C56.4692 86.274 70.5335 72.2097 70.5335 54.9086C70.5335 37.5887 56.4496 23.5049 39.1297 23.5049V23.5049ZM40.8637 82.3824V78.7986C40.8637 77.7344 40.0012 76.872 38.9371 76.872C37.8729 76.872 37.0105 77.7344 37.0105 78.7986V82.3628C23.5046 81.3227 12.6968 70.5337 11.6755 57.0279H15.0471C16.1113 57.0279 16.9737 56.1654 16.9737 55.1013C16.9737 54.0371 16.1113 53.1747 15.0471 53.1747H11.6372C12.5139 39.4777 23.327 28.508 37.0105 27.4349V31.0187C37.0105 32.0828 37.8729 32.9453 38.9371 32.9453C40.0012 32.9453 40.8637 32.0828 40.8637 31.0187V27.4161C54.7029 28.3086 65.7297 39.3354 66.6223 53.1747H62.827C61.7629 53.1747 60.9004 54.0371 60.9004 55.1013C60.9004 56.1654 61.7629 57.0279 62.827 57.0279H66.5839C65.5431 70.6489 54.5426 81.5342 40.8637 82.3824V82.3824Z" fill="#03FF95"/>
<path d="M50.0904 53.3669H41.0549V40.6317C41.0549 39.5683 40.1924 38.7051 39.1283 38.7051C38.0641 38.7051 37.2016 39.5683 37.2016 40.6317V55.3131C37.1904 55.815 37.383 56.3004 37.7345 56.6594C38.0859 57.0184 38.5676 57.2208 39.0703 57.2201H50.0715C51.1349 57.2254 52.0019 56.3674 52.0072 55.3033C52.0125 54.2391 51.1545 53.3721 50.0904 53.3669V53.3669Z" fill="#03FF95"/>
</svg>
