<svg width="128" height="102" viewBox="0 0 128 102" fill="none" xmlns="http://www.w3.org/2000/svg">
<g clip-path="url(#clip0_2143_297)">
<path d="M127.14 29.6781C126.746 29.4113 126.292 29.2466 125.818 29.1991C125.344 29.1515 124.865 29.2226 124.426 29.4059C124.051 29.5785 123.732 29.8522 123.506 30.196C123.279 30.5397 123.154 30.9396 123.145 31.3504C120.739 55.1709 97.4629 60.1099 90.3822 61.053L89.502 61.1746L88.9885 60.4502C86.1882 56.5083 82.4859 53.2842 78.1866 51.0436L75.7954 49.8186L78.1181 48.4914C86.2795 43.8343 90.9641 34.6707 90.3431 24.5738C89.722 14.4768 83.9372 5.89176 75.2477 2.24577C67.0912 -1.43424 57.101 -0.544618 49.1352 4.5549C41.6633 9.33842 37.3993 16.8832 37.3993 25.2592V26.9996C37.5341 31.3353 38.7476 35.5703 40.9313 39.3259C43.1149 43.0814 46.2007 46.2405 49.9127 48.5206L52.0937 49.8672L49.8149 51.0436C45.5197 53.2841 41.8209 56.5064 39.0228 60.4454L38.5338 61.1697L37.6536 61.053C30.5827 60.1342 7.33573 55.2681 4.89074 31.3407C4.85838 31.0222 4.76306 30.7132 4.61023 30.4314C4.4574 30.1496 4.25008 29.9006 4.00017 29.6987C3.75027 29.4967 3.4627 29.3459 3.15399 29.2548C2.84528 29.1637 2.5215 29.1341 2.20125 29.1677C1.88132 29.1973 1.57062 29.2904 1.28755 29.4416C1.00448 29.5927 0.754813 29.7988 0.55333 30.0476C0.345758 30.2921 0.189852 30.5756 0.0949161 30.8813C-2.01296e-05 31.187 -0.0320416 31.5086 0.000762349 31.8268C1.0081 41.8217 5.42375 49.9984 13.1255 56.1334C20.9494 62.3656 29.8638 64.6844 34.4849 65.506L36.2061 65.8171L35.6047 67.4457C33.6487 72.7688 33.6487 75.5981 33.722 89.1854C33.722 92.1022 33.7563 95.5294 33.7563 99.5595C33.7545 100.173 33.9864 100.765 34.4055 101.216C34.8245 101.667 35.3997 101.943 36.0154 101.99H36.1621H91.8394H91.9714C92.5863 101.942 93.1602 101.665 93.5783 101.215C93.9963 100.764 94.2276 100.173 94.2257 99.5595C94.2257 95.5343 94.2257 92.1217 94.2599 89.1952C94.3284 75.5835 94.3431 72.7591 92.3822 67.4408L91.7807 65.8123L93.4971 65.5011C98.123 64.6796 107.047 62.3607 114.861 56.1285C122.558 49.9887 126.974 41.812 127.986 31.822C128.059 31.4218 128.018 31.0094 127.869 30.6308C127.72 30.2522 127.467 29.9223 127.14 29.6781ZM42.8369 26.2023C42.8369 16.1345 49.414 5.10422 63.8932 4.67643H63.9665C78.4995 4.97297 85.1401 15.9984 85.1646 26.1148C85.189 36.2312 78.5827 47.2566 64.0594 47.6407H63.9812C49.458 47.2129 42.8418 36.2312 42.8369 26.2023ZM38.6609 97.1385V77.7808C38.9885 60.6544 52.0252 52.852 64.0008 52.852C75.9763 52.852 89.0179 60.6544 89.3406 77.7808H89.3113C89.3355 78.0458 89.3453 78.312 89.3406 78.5781V97.1288L38.6609 97.1385Z" fill="#03FF95"/>
</g>
<defs>
<clipPath id="clip0_2143_297">
<rect width="128" height="102" fill="white"/>
</clipPath>
</defs>
</svg>
