<svg width="79" height="94" viewBox="0 0 79 94" fill="none" xmlns="http://www.w3.org/2000/svg">
<path d="M53.8192 61.8998L53.512 62.4072L54.0975 62.5019C58.5959 63.2295 64.636 64.6716 69.5403 67.1097C74.4692 69.5601 78.1008 72.9364 78.1008 77.4766C78.1008 80.0702 76.8942 82.3696 74.745 84.3767C72.5903 86.3886 69.5042 88.0895 65.8033 89.4616C58.4031 92.2052 48.6405 93.6 39.2504 93.6C29.2067 93.6 19.745 92.115 12.607 89.4321C7.49608 87.5111 4.44573 85.333 2.67476 83.2388C0.90989 81.1517 0.4 79.1299 0.4 77.4766C0.4 72.9374 4.03584 69.5603 8.96714 67.1093C13.8737 64.6706 19.9138 63.2281 24.403 62.5021L24.9885 62.4074L24.6813 61.9L16.2499 47.9763L16.244 47.9665L16.2375 47.9571C12.7109 42.8198 10.8668 36.6953 10.8668 30.4766C10.8668 13.9374 23.6458 0.4 39.2504 0.4C54.9061 0.4 67.634 13.9638 67.634 30.4766C67.634 36.6997 65.8281 42.6672 62.4131 47.7365L62.4124 47.7375C62.379 47.7874 62.3664 47.8039 62.3541 47.8205C62.2627 47.944 62.1878 48.0796 53.8192 61.8998ZM58.8258 44.9703L58.826 44.9704L58.8334 44.9594C61.6914 40.7 63.2007 35.6925 63.2007 30.4766C63.2007 16.5101 52.4786 5.10781 39.2504 5.10781C25.9949 5.10781 15.3002 16.5054 15.3002 30.4766C15.3002 35.6843 16.8381 40.8669 19.8597 45.2419C19.8868 45.2812 19.9126 45.321 19.9374 45.3617L38.9083 76.6903L39.2504 77.2554L39.5926 76.6903C44.6631 68.3168 48.386 62.1673 51.122 57.6479C53.8668 53.1142 55.6184 50.2209 56.7411 48.3682C58.7193 45.1039 58.7422 45.0757 58.7966 45.0084C58.8041 44.9992 58.8121 44.9893 58.8258 44.9703ZM27.7735 67.0063L27.6383 66.783L27.3794 66.8169C19.6994 67.8222 14.1007 69.6174 10.4095 71.5708C8.56464 72.5471 7.18353 73.5696 6.25807 74.5641C5.33905 75.5516 4.83339 76.5518 4.83339 77.4766C4.83339 78.828 5.79813 80.2007 7.40582 81.4724C9.03129 82.7581 11.3959 84.0078 14.3854 85.103C20.3685 87.2948 28.9206 88.8922 39.2504 88.8922C49.6407 88.8922 58.1931 87.285 64.1613 85.088C67.1435 83.9902 69.4967 82.7392 71.1127 81.4552C72.7109 80.1853 73.6674 78.8176 73.6674 77.4766C73.6674 76.5518 73.1618 75.5516 72.2427 74.5641C71.3172 73.5696 69.9361 72.5471 68.0912 71.5708C64.3999 69.6174 58.8011 67.8222 51.1209 66.8169L50.862 66.783L50.7268 67.0063L41.1146 82.8804L41.449 83.0829L41.1146 82.8804C40.7035 83.5595 39.9981 83.9613 39.2502 83.9613C38.5024 83.9613 37.7971 83.5596 37.3858 82.8804L37.0437 83.0876L37.3858 82.8804L27.7735 67.0063Z" fill="#03FF95" stroke="black" stroke-width="0.8"/>
<path d="M26.568 30.4766C26.568 23.0854 32.2771 17.107 39.2514 17.107C46.2257 17.107 51.9349 23.0854 51.9349 30.4766C51.9349 37.8677 46.2257 43.8461 39.2514 43.8461C32.2771 43.8461 26.568 37.8677 26.568 30.4766ZM31.0014 30.4766C31.0014 35.2335 34.683 39.1383 39.2514 39.1383C43.8199 39.1383 47.5015 35.2335 47.5015 30.4766C47.5015 25.7196 43.8199 21.8148 39.2514 21.8148C34.683 21.8148 31.0014 25.7196 31.0014 30.4766Z" fill="#03FF95" stroke="black" stroke-width="0.8"/>
</svg>
