<svg width="57" height="108" viewBox="0 0 57 108" fill="none" xmlns="http://www.w3.org/2000/svg">
<path d="M25.6412 73.252L24.1861 76.2005L20.9323 76.6735C18.4057 77.0403 17.3963 80.1479 19.2242 81.9298L21.5786 84.2248L21.0227 87.4655C20.5913 89.9816 23.2344 91.9021 25.4941 90.7141L28.4048 89.1839L31.3151 90.7139C33.5745 91.9021 36.2181 89.9812 35.7863 87.4653L35.2305 84.2245L37.585 81.9295C39.4131 80.1473 38.4028 77.0399 35.8771 76.6732L32.6231 76.2002L31.168 73.252C30.0375 70.9605 26.7715 70.9626 25.6412 73.252V73.252ZM26.9963 77.6285L28.4048 74.7745L29.8133 77.6285C30.2623 78.5383 31.1299 79.1685 32.1337 79.3141L35.2833 79.772L33.0038 81.9936C32.2779 82.7018 31.9465 83.7213 32.1179 84.7211L32.6559 87.858L29.8389 86.3771C28.9413 85.9053 27.8688 85.9047 26.9709 86.3771L24.1537 87.858L24.6917 84.7217C24.8633 83.7219 24.5322 82.7022 23.8056 81.9934L21.5265 79.772L24.6757 79.3143C25.6797 79.1685 26.5473 78.5383 26.9963 77.6285V77.6285Z" fill="#03FF95"/>
<path d="M30.5427 65.4752C30.3546 66.325 30.8911 67.1663 31.7408 67.3544C38.7145 68.8978 43.7759 75.2079 43.7759 82.3585C43.7759 90.8345 36.8803 97.7302 28.4042 97.7302C19.9283 97.7302 13.0328 90.8347 13.0328 82.3585C13.0328 75.2079 18.0941 68.8978 25.0676 67.3542C25.9174 67.1661 26.4538 66.3248 26.2658 65.475C26.0775 64.6255 25.2368 64.0886 24.3864 64.2769C16.047 66.1228 9.88086 73.5637 9.88086 82.3585C9.88086 92.5724 18.1903 100.882 28.4042 100.882C38.6181 100.882 46.9278 92.5726 46.9278 82.3585C46.9278 73.5458 40.7425 66.1184 32.4221 64.2769C31.5736 64.089 30.7307 64.6253 30.5427 65.4752V65.4752Z" fill="#03FF95"/>
<path d="M45.4896 25.8371C46.295 26.1672 47.2154 25.7812 47.5451 24.9755L56.1704 3.90459C56.9327 2.04244 55.5604 0 53.5497 0H42.1234C40.9687 0 39.94 0.690479 39.5025 1.75898L28.4048 28.8709L17.3071 1.75898C16.8694 0.690689 15.8407 0 14.6864 0H3.26012C1.24794 0 -0.122303 2.04328 0.639199 3.90459L18.8501 48.3938C16.9625 49.0061 15.5933 50.7807 15.5933 52.8697V60.6352C8.16869 65.0309 3.17838 73.122 3.17838 82.358C3.17838 96.268 14.4948 107.584 28.4048 107.584C42.3148 107.584 53.6314 96.268 53.6314 82.358C53.6314 73.1218 48.6411 65.0307 41.2163 60.635V52.8695C41.2163 50.7804 39.8473 49.0059 37.9595 48.3936L44.7422 31.8234C45.0717 31.018 44.6861 30.0976 43.8805 29.7679C43.0751 29.4382 42.1549 29.824 41.825 30.6294L34.6475 48.1646H23.9133C24.7912 46.0196 41.6178 4.91215 42.3381 3.15191H53.0727L44.6281 23.7816C44.2986 24.587 44.684 25.5074 45.4896 25.8371ZM50.4795 82.3582C50.4795 94.5302 40.5769 104.433 28.4048 104.433C16.2328 104.433 6.33029 94.5302 6.33029 82.3582C6.33029 70.1052 16.3193 60.2835 28.4048 60.2835H28.4059C40.5735 60.2849 50.4795 70.1798 50.4795 82.3582ZM36.5111 51.3167C37.3676 51.3167 38.0644 52.0135 38.0644 52.8699V59.0502C35.0318 57.796 31.7446 57.1318 28.405 57.1318C28.4025 57.1318 28.4 57.1318 28.3972 57.1318C25.0423 57.1326 21.7553 57.805 18.7455 59.05V52.8697C18.7455 52.0133 19.4422 51.3165 20.2989 51.3165L36.5111 51.3167ZM21.3346 46.1433L3.7369 3.15191H14.4715L26.7019 33.031L21.3346 46.1433Z" fill="#03FF95"/>
</svg>
