<svg width="103" height="112" viewBox="0 0 103 112" fill="none" xmlns="http://www.w3.org/2000/svg">
<path d="M102.715 44.8218L87.6126 14.3478C87.2941 13.7053 86.8063 13.1616 86.2018 12.7756L68.0823 1.20749C65.9355 -0.163167 63.1625 -0.19118 61.0179 1.13602C55.2535 4.70272 49.0786 4.59508 42.1406 0.806041C40.0332 -0.344921 37.4535 -0.258014 35.4082 1.03301L32.2829 3.00562C32.2792 3.00782 32.2759 3.01025 32.2721 3.01245L16.8125 12.7703C16.2001 13.1569 15.7063 13.7044 15.3848 14.3533L0.284634 44.8218C-0.358459 46.1193 0.122758 47.6984 1.37961 48.4168L17.8614 57.8364V109.354C17.8614 110.813 19.0481 112 20.5068 112H82.4932C83.9519 112 85.1386 110.813 85.1386 109.354V91.6932C85.1386 90.7796 84.398 90.0389 83.4845 90.0389C82.5711 90.0389 81.8305 90.7796 81.8305 91.6932V108.691H21.1695V37.2215C21.1695 36.3078 20.4289 35.5672 19.5155 35.5672C18.602 35.5672 17.8614 36.3078 17.8614 37.2215V54.0258L3.48687 45.8104L18.3488 15.8226C18.4004 15.7183 18.4798 15.6302 18.5782 15.5683L32.0159 7.08648C32.7734 9.82404 34.1068 12.3871 35.9439 14.601C36.271 14.9954 36.7425 15.1988 37.2175 15.1988C37.5898 15.1988 37.9643 15.0739 38.273 14.8174C38.9761 14.2338 39.0729 13.1909 38.4896 12.4879C36.7352 10.3735 35.5286 7.88099 34.9636 5.22593L37.1734 3.83101C37.2422 3.78756 37.3126 3.74719 37.3836 3.70925C37.8174 6.81076 39.2509 9.67228 41.5218 11.8972C44.2027 14.5241 47.7465 15.9708 51.5001 15.9708C55.223 15.9708 58.7459 14.5443 61.4198 11.9544C63.7323 9.71419 65.1943 6.8123 65.6248 3.66514C65.8594 3.74918 66.0873 3.8588 66.3025 3.99622L68.0569 5.1163C66.46 12.8823 59.5222 18.6175 51.5001 18.6175C48.5643 18.6175 45.6668 17.8455 43.1212 16.3853C42.3285 15.9307 41.3178 16.2046 40.8635 16.9971C40.409 17.7897 40.6831 18.8008 41.4753 19.2552C44.5214 21.0023 47.9878 21.9259 51.5001 21.9259C60.6673 21.9259 68.6502 15.6609 71.0064 6.99913L84.4218 15.5638C84.5189 15.626 84.5974 15.7134 84.6485 15.8166L99.5131 45.81L85.1386 54.0253V37.221C85.1386 36.3074 84.398 35.5667 83.4845 35.5667C82.5711 35.5667 81.8305 36.3074 81.8305 37.221V85.0759C81.8305 85.9896 82.5711 86.7302 83.4845 86.7302C84.398 86.7302 85.1386 85.9896 85.1386 85.0759V57.8364L101.62 48.4168C102.877 47.6984 103.358 46.1193 102.715 44.8218V44.8218ZM51.4999 12.6622C48.6172 12.6622 45.8955 11.5511 43.8366 9.53376C42.2324 7.96172 41.1725 5.97654 40.7532 3.81491C48.4006 7.92731 55.5916 8.09693 62.1411 4.31782C60.9789 9.14136 56.6678 12.6622 51.4999 12.6622V12.6622Z" fill="#03FF95"/>
</svg>
